# xmcd
#
# Track frame offsets:
#	150
#	11722
#	24466
#	43499
#	63205
#	85192
#	104922
#	121166
#	134880
#	147258
#	168692
#
# Disc length: 2523 seconds
#
# Revision: 0
# Processed by: cddbd v1.5.2PL0 Copyright (c) Steve Scherf et al.
# Submitted via: EZCDAudioConverter 6.0.0.1
#
DISCID=a509d90b
DTITLE=The End of America
DYEAR=2016
DGENRE=Americana
TTITLE0=Russian Fortune
TTITLE1=Sinking Sun
TTITLE2=Move On
TTITLE3=Fighters
TTITLE4=New Drugs
TTITLE5=Pain to Come
TTITLE6=Earth Teeth
TTITLE7=Empty Sea
TTITLE8=No Further
TTITLE9=Apoc Jam
TTITLE10=Last Ride
EXTD=
EXTT0=
EXTT1=
EXTT2=
EXTT3=
EXTT4=
EXTT5=
EXTT6=
EXTT7=
EXTT8=
EXTT9=
EXTT10=
PLAYORDER=
